<?xml version="1.0" encoding="UTF-8"?>
<svg width="40px" height="40px" viewBox="0 0 40 40" version="1.1" xmlns="http://www.w3.org/2000/svg" xmlns:xlink="http://www.w3.org/1999/xlink">
    <!-- Generator: Sketch 43.2 (39069) - http://www.bohemiancoding.com/sketch -->
    <title>Combined Shape Copy</title>
    <desc>Created with Sketch.</desc>
    <defs></defs>
    <g id="Page-1" stroke="none" stroke-width="1" fill="none" fill-rule="evenodd">
        <path d="M20.0000397,0 C25.4316739,0 26.1127618,0.0230231363 28.2459744,0.12035543 C30.3747412,0.217449553 31.8286126,0.555572095 33.10076,1.05001379 C34.4159368,1.56104803 35.5312886,2.24491457 36.6432267,3.35677327 C37.7550854,4.46871136 38.438952,5.58406323 38.9500656,6.89924004 C39.4444279,8.1713874 39.7825504,9.62525876 39.8796446,11.7540256 C39.9769769,13.8872382 40,14.5683261 40,20.0000397 C40,25.4316739 39.9769769,26.1127618 39.8796446,28.2459744 C39.7825504,30.3747412 39.4444279,31.8286126 38.9500656,33.10076 C38.438952,34.4159368 37.7550854,35.5312886 36.6432267,36.6432267 C35.5312886,37.7550854 34.4159368,38.438952 33.10076,38.9500656 C31.8286126,39.4444279 30.3747412,39.7825504 28.2459744,39.8796446 C26.1127618,39.9769769 25.4316739,40 20.0000397,40 C14.5683261,40 13.8872382,39.9769769 11.7540256,39.8796446 C9.62525876,39.7825504 8.1713874,39.4444279 6.89924004,38.9500656 C5.58406323,38.438952 4.46871136,37.7550854 3.35677327,36.6432267 C2.24491457,35.5312886 1.56104803,34.4159368 1.05001379,33.10076 C0.555572095,31.8286126 0.217449553,30.3747412 0.12035543,28.2459744 C0.0230231363,26.1127618 0,25.4316739 0,20.0000397 C0,14.5683261 0.0230231363,13.8872382 0.12035543,11.7540256 C0.217449553,9.62525876 0.555572095,8.1713874 1.05001379,6.89924004 C1.56104803,5.58406323 2.24491457,4.46871136 3.35677327,3.35677327 C4.46871136,2.24491457 5.58406323,1.56104803 6.89924004,1.05001379 C8.1713874,0.555572095 9.62525876,0.217449553 11.7540256,0.12035543 C13.8872382,0.0230231363 14.5683261,0 20.0000397,0 Z M20.0000397,3.60359717 C14.6597835,3.60359717 14.027203,3.62400043 11.9182837,3.72022126 C9.96830349,3.8091382 8.90931861,4.13495527 8.20457247,4.40885121 C7.27102399,4.77166408 6.60478206,5.20505477 5.90495811,5.90495811 C5.20505477,6.60478206 4.77166408,7.27102399 4.40885121,8.20457247 C4.13495527,8.90931861 3.8091382,9.96830349 3.72022126,11.9182837 C3.62400043,14.027203 3.60359717,14.6597835 3.60359717,20.0000397 C3.60359717,25.3402165 3.62400043,25.972797 3.72022126,28.0817163 C3.8091382,30.0316965 4.13495527,31.0906814 4.40885121,31.7954275 C4.77166408,32.728976 5.20513416,33.3952179 5.90495811,34.0950419 C6.60478206,34.7949452 7.27102399,35.2283359 8.20457247,35.5911488 C8.90931861,35.8650447 9.96830349,36.1908618 11.9182837,36.2797787 C14.0269649,36.3759996 14.6593866,36.3964028 20.0000397,36.3964028 C25.3406134,36.3964028 25.9731145,36.3759996 28.0817163,36.2797787 C30.0316965,36.1908618 31.0906814,35.8650447 31.7954275,35.5911488 C32.728976,35.2283359 33.3952179,34.7949452 34.0950419,34.0950419 C34.7949452,33.3952179 35.2283359,32.728976 35.5911488,31.7954275 C35.8650447,31.0906814 36.1908618,30.0316965 36.2797787,28.0817163 C36.3759996,25.972797 36.3964028,25.3402165 36.3964028,20.0000397 C36.3964028,14.6597835 36.3759996,14.027203 36.2797787,11.9182837 C36.1908618,9.96830349 35.8650447,8.90931861 35.5911488,8.20457247 C35.2283359,7.27102399 34.7949452,6.60478206 34.0950419,5.90495811 C33.3952179,5.20505477 32.728976,4.77166408 31.7954275,4.40885121 C31.0906814,4.13495527 30.0316965,3.8091382 28.0817163,3.72022126 C25.972797,3.62400043 25.3402165,3.60359717 20.0000397,3.60359717 Z M20.0000397,9.72973617 C25.6721466,9.72973617 30.2702638,14.3278534 30.2702638,20.0000397 C30.2702638,25.6721466 25.6721466,30.2702638 20.0000397,30.2702638 C14.3278534,30.2702638 9.72973617,25.6721466 9.72973617,20.0000397 C9.72973617,14.3278534 14.3278534,9.72973617 20.0000397,9.72973617 Z M20.0000397,26.6666667 C23.6819155,26.6666667 26.6666667,23.6819155 26.6666667,20.0000397 C26.6666667,16.3180845 23.6819155,13.3333333 20.0000397,13.3333333 C16.3180845,13.3333333 13.3333333,16.3180845 13.3333333,20.0000397 C13.3333333,23.6819155 16.3180845,26.6666667 20.0000397,26.6666667 Z M33.0760696,9.32397324 C33.0760696,10.6494708 32.0015243,11.7239367 30.6760268,11.7239367 C29.3506086,11.7239367 28.2760633,10.6494708 28.2760633,9.32397324 C28.2760633,7.99847571 29.3506086,6.92393037 30.6760268,6.92393037 C32.0015243,6.92393037 33.0760696,7.99847571 33.0760696,9.32397324 Z" id="Combined-Shape-Copy" fill="#FFFFFF"></path>
    </g>
</svg>